<?xml version="1.0" standalone="no"?>
<svg width="567" height="453" viewBox="0 0 567 453" xmlns="http://www.w3.org/2000/svg">
<title>
results/sar-txrtXX-70-axion-image.svg
</title>
<desc>
Creator: ROOT Version 5.34/14
CreationDate: Mon Jan 28 15:25:49 2019</desc>
<defs>
</defs>
<rect x="0" y="0" width="567" height="453" fill="white"/>
<rect x="85" y="45" width="354" height="340" fill="white"/>
<rect x="85" y="45" width="354" height="340" fill="none" stroke="black"/>
<rect x="85" y="45" width="354" height="340" fill="white"/>
<rect x="85" y="45" width="354" height="340" fill="none" stroke="black"/>
<rect x="252" y="225" width="3" height="4" fill="#0000ff"/>
<rect x="255" y="225" width="4" height="4" fill="#0000ff"/>
<rect x="259" y="225" width="3" height="4" fill="#0000ff"/>
<rect x="262" y="225" width="4" height="4" fill="#0000ff"/>
<rect x="266" y="225" width="3" height="4" fill="#0000ff"/>
<rect x="269" y="225" width="4" height="4" fill="#0000ff"/>
<rect x="248" y="222" width="4" height="3" fill="#0000ff"/>
<rect x="252" y="222" width="3" height="3" fill="#0100fe"/>
<rect x="255" y="222" width="4" height="3" fill="#0300fc"/>
<rect x="259" y="222" width="3" height="3" fill="#0400fb"/>
<rect x="262" y="222" width="4" height="3" fill="#0400fb"/>
<rect x="266" y="222" width="3" height="3" fill="#0300fc"/>
<rect x="269" y="222" width="4" height="3" fill="#0100fe"/>
<rect x="273" y="222" width="3" height="3" fill="#0000ff"/>
<rect x="276" y="222" width="4" height="3" fill="#0000ff"/>
<rect x="244" y="219" width="4" height="3" fill="#0000ff"/>
<rect x="248" y="219" width="4" height="3" fill="#0200fd"/>
<rect x="252" y="219" width="3" height="3" fill="#0700f8"/>
<rect x="255" y="219" width="4" height="3" fill="#0b00f4"/>
<rect x="259" y="219" width="3" height="3" fill="#0e00f1"/>
<rect x="262" y="219" width="4" height="3" fill="#0e00f1"/>
<rect x="266" y="219" width="3" height="3" fill="#0b00f4"/>
<rect x="269" y="219" width="4" height="3" fill="#0700f8"/>
<rect x="273" y="219" width="3" height="3" fill="#0200fd"/>
<rect x="276" y="219" width="4" height="3" fill="#0000ff"/>
<rect x="241" y="215" width="3" height="4" fill="#0000ff"/>
<rect x="244" y="215" width="4" height="4" fill="#0200fd"/>
<rect x="248" y="215" width="4" height="4" fill="#0800f7"/>
<rect x="252" y="215" width="3" height="4" fill="#1000ef"/>
<rect x="255" y="215" width="4" height="4" fill="#1700e8"/>
<rect x="259" y="215" width="3" height="4" fill="#1c00e3"/>
<rect x="262" y="215" width="4" height="4" fill="#1c00e3"/>
<rect x="266" y="215" width="3" height="4" fill="#1700e8"/>
<rect x="269" y="215" width="4" height="4" fill="#1000ef"/>
<rect x="273" y="215" width="3" height="4" fill="#0800f7"/>
<rect x="276" y="215" width="4" height="4" fill="#0200fd"/>
<rect x="280" y="215" width="3" height="4" fill="#0000ff"/>
<rect x="241" y="212" width="3" height="3" fill="#0000ff"/>
<rect x="244" y="212" width="4" height="3" fill="#0600f9"/>
<rect x="248" y="212" width="4" height="3" fill="#0f00f0"/>
<rect x="252" y="212" width="3" height="3" fill="#1a00e5"/>
<rect x="255" y="212" width="4" height="3" fill="#2700d8"/>
<rect x="259" y="212" width="3" height="3" fill="#3400cb"/>
<rect x="262" y="212" width="4" height="3" fill="#3400cb"/>
<rect x="266" y="212" width="3" height="3" fill="#2700d8"/>
<rect x="269" y="212" width="4" height="3" fill="#1a00e5"/>
<rect x="273" y="212" width="3" height="3" fill="#0f00f0"/>
<rect x="276" y="212" width="4" height="3" fill="#0600f9"/>
<rect x="280" y="212" width="3" height="3" fill="#0000ff"/>
<rect x="237" y="208" width="4" height="4" fill="#0000ff"/>
<rect x="241" y="208" width="3" height="4" fill="#0100fe"/>
<rect x="244" y="208" width="4" height="4" fill="#0900f6"/>
<rect x="248" y="208" width="4" height="4" fill="#1400eb"/>
<rect x="252" y="208" width="3" height="4" fill="#2500da"/>
<rect x="255" y="208" width="4" height="4" fill="#4200bd"/>
<rect x="259" y="208" width="3" height="4" fill="#7d0082"/>
<rect x="262" y="208" width="4" height="4" fill="#7f0080"/>
<rect x="266" y="208" width="3" height="4" fill="#4200bd"/>
<rect x="269" y="208" width="4" height="4" fill="#2500da"/>
<rect x="273" y="208" width="3" height="4" fill="#1500ea"/>
<rect x="276" y="208" width="4" height="4" fill="#0900f6"/>
<rect x="280" y="208" width="3" height="4" fill="#0100fe"/>
<rect x="283" y="208" width="4" height="4" fill="#0000ff"/>
<rect x="237" y="205" width="4" height="3" fill="#0000ff"/>
<rect x="241" y="205" width="3" height="3" fill="#0200fd"/>
<rect x="244" y="205" width="4" height="3" fill="#0b00f4"/>
<rect x="248" y="205" width="4" height="3" fill="#1700e8"/>
<rect x="252" y="205" width="3" height="3" fill="#2b00d4"/>
<rect x="255" y="205" width="4" height="3" fill="#5f00a0"/>
<rect x="259" y="205" width="3" height="3" fill="#fc0003"/>
<rect x="262" y="205" width="4" height="3" fill="#fe0001"/>
<rect x="266" y="205" width="3" height="3" fill="#5e00a1"/>
<rect x="269" y="205" width="4" height="3" fill="#2b00d4"/>
<rect x="273" y="205" width="3" height="3" fill="#1700e8"/>
<rect x="276" y="205" width="4" height="3" fill="#0b00f4"/>
<rect x="280" y="205" width="3" height="3" fill="#0200fd"/>
<rect x="283" y="205" width="4" height="3" fill="#0000ff"/>
<rect x="237" y="202" width="4" height="3" fill="#0000ff"/>
<rect x="241" y="202" width="3" height="3" fill="#0200fd"/>
<rect x="244" y="202" width="4" height="3" fill="#0a00f5"/>
<rect x="248" y="202" width="4" height="3" fill="#1600e9"/>
<rect x="252" y="202" width="3" height="3" fill="#2900d6"/>
<rect x="255" y="202" width="4" height="3" fill="#5100ae"/>
<rect x="259" y="202" width="3" height="3" fill="#c1003e"/>
<rect x="262" y="202" width="4" height="3" fill="#bf0040"/>
<rect x="266" y="202" width="3" height="3" fill="#5000af"/>
<rect x="269" y="202" width="4" height="3" fill="#2900d6"/>
<rect x="273" y="202" width="3" height="3" fill="#1600e9"/>
<rect x="276" y="202" width="4" height="3" fill="#0a00f5"/>
<rect x="280" y="202" width="3" height="3" fill="#0200fd"/>
<rect x="283" y="202" width="4" height="3" fill="#0000ff"/>
<rect x="241" y="198" width="3" height="4" fill="#0100fe"/>
<rect x="244" y="198" width="4" height="4" fill="#0800f7"/>
<rect x="248" y="198" width="4" height="4" fill="#1200ed"/>
<rect x="252" y="198" width="3" height="4" fill="#1f00e0"/>
<rect x="255" y="198" width="4" height="4" fill="#3200cd"/>
<rect x="259" y="198" width="3" height="4" fill="#4800b7"/>
<rect x="262" y="198" width="4" height="4" fill="#4800b7"/>
<rect x="266" y="198" width="3" height="4" fill="#3100ce"/>
<rect x="269" y="198" width="4" height="4" fill="#1f00e0"/>
<rect x="273" y="198" width="3" height="4" fill="#1200ed"/>
<rect x="276" y="198" width="4" height="4" fill="#0700f8"/>
<rect x="280" y="198" width="3" height="4" fill="#0100fe"/>
<rect x="283" y="198" width="4" height="4" fill="#0000ff"/>
<rect x="241" y="195" width="3" height="3" fill="#0000ff"/>
<rect x="244" y="195" width="4" height="3" fill="#0400fb"/>
<rect x="248" y="195" width="4" height="3" fill="#0b00f4"/>
<rect x="252" y="195" width="3" height="3" fill="#1400eb"/>
<rect x="255" y="195" width="4" height="3" fill="#1d00e2"/>
<rect x="259" y="195" width="3" height="3" fill="#2400db"/>
<rect x="262" y="195" width="4" height="3" fill="#2400db"/>
<rect x="266" y="195" width="3" height="3" fill="#1d00e2"/>
<rect x="269" y="195" width="4" height="3" fill="#1400eb"/>
<rect x="273" y="195" width="3" height="3" fill="#0b00f4"/>
<rect x="276" y="195" width="4" height="3" fill="#0400fb"/>
<rect x="280" y="195" width="3" height="3" fill="#0000ff"/>
<rect x="241" y="191" width="3" height="4" fill="#0000ff"/>
<rect x="244" y="191" width="4" height="4" fill="#0000ff"/>
<rect x="248" y="191" width="4" height="4" fill="#0500fa"/>
<rect x="252" y="191" width="3" height="4" fill="#0b00f4"/>
<rect x="255" y="191" width="4" height="4" fill="#1000ef"/>
<rect x="259" y="191" width="3" height="4" fill="#1300ec"/>
<rect x="262" y="191" width="4" height="4" fill="#1300ec"/>
<rect x="266" y="191" width="3" height="4" fill="#1000ef"/>
<rect x="269" y="191" width="4" height="4" fill="#0b00f4"/>
<rect x="273" y="191" width="3" height="4" fill="#0500fa"/>
<rect x="276" y="191" width="4" height="4" fill="#0000ff"/>
<rect x="280" y="191" width="3" height="4" fill="#0000ff"/>
<rect x="244" y="188" width="4" height="3" fill="#0000ff"/>
<rect x="248" y="188" width="4" height="3" fill="#0000ff"/>
<rect x="252" y="188" width="3" height="3" fill="#0300fc"/>
<rect x="255" y="188" width="4" height="3" fill="#0600f9"/>
<rect x="259" y="188" width="3" height="3" fill="#0800f7"/>
<rect x="262" y="188" width="4" height="3" fill="#0800f7"/>
<rect x="266" y="188" width="3" height="3" fill="#0600f9"/>
<rect x="269" y="188" width="4" height="3" fill="#0300fc"/>
<rect x="273" y="188" width="3" height="3" fill="#0000ff"/>
<rect x="276" y="188" width="4" height="3" fill="#0000ff"/>
<rect x="248" y="185" width="4" height="3" fill="#0000ff"/>
<rect x="252" y="185" width="3" height="3" fill="#0000ff"/>
<rect x="255" y="185" width="4" height="3" fill="#0000ff"/>
<rect x="259" y="185" width="3" height="3" fill="#0100fe"/>
<rect x="262" y="185" width="4" height="3" fill="#0100fe"/>
<rect x="266" y="185" width="3" height="3" fill="#0000ff"/>
<rect x="269" y="185" width="4" height="3" fill="#0000ff"/>
<rect x="273" y="185" width="3" height="3" fill="#0000ff"/>
<rect x="259" y="181" width="3" height="4" fill="#0000ff"/>
<rect x="262" y="181" width="4" height="4" fill="#0000ff"/>
<path d="M85,385h 354" fill="none" stroke="black"/>
<text x="231" y="432" fill="black" font-size="21" font-family="Helvetica">
x [mm]
</text>
<path d="M85,377v 8" fill="none" stroke="black"/>
<path d="M98,381v 4" fill="none" stroke="black"/>
<path d="M110,381v 4" fill="none" stroke="black"/>
<path d="M123,381v 4" fill="none" stroke="black"/>
<path d="M136,377v 8" fill="none" stroke="black"/>
<path d="M148,381v 4" fill="none" stroke="black"/>
<path d="M161,381v 4" fill="none" stroke="black"/>
<path d="M174,381v 4" fill="none" stroke="black"/>
<path d="M186,377v 8" fill="none" stroke="black"/>
<path d="M199,381v 4" fill="none" stroke="black"/>
<path d="M212,381v 4" fill="none" stroke="black"/>
<path d="M224,381v 4" fill="none" stroke="black"/>
<path d="M237,377v 8" fill="none" stroke="black"/>
<path d="M250,381v 4" fill="none" stroke="black"/>
<path d="M262,381v 4" fill="none" stroke="black"/>
<path d="M275,381v 4" fill="none" stroke="black"/>
<path d="M288,377v 8" fill="none" stroke="black"/>
<path d="M300,381v 4" fill="none" stroke="black"/>
<path d="M313,381v 4" fill="none" stroke="black"/>
<path d="M325,381v 4" fill="none" stroke="black"/>
<path d="M338,377v 8" fill="none" stroke="black"/>
<path d="M351,381v 4" fill="none" stroke="black"/>
<path d="M363,381v 4" fill="none" stroke="black"/>
<path d="M376,381v 4" fill="none" stroke="black"/>
<path d="M389,377v 8" fill="none" stroke="black"/>
<path d="M401,381v 4" fill="none" stroke="black"/>
<path d="M414,381v 4" fill="none" stroke="black"/>
<path d="M427,381v 4" fill="none" stroke="black"/>
<path d="M439,377v 8" fill="none" stroke="black"/>
<path d="M439,377v 8" fill="none" stroke="black"/>
<text x="79" y="405" fill="black" font-size="21" font-family="Helvetica">
0
</text>
<text x="130" y="405" fill="black" font-size="21" font-family="Helvetica">
2
</text>
<text x="180" y="405" fill="black" font-size="21" font-family="Helvetica">
4
</text>
<text x="231" y="405" fill="black" font-size="21" font-family="Helvetica">
6
</text>
<text x="282" y="405" fill="black" font-size="21" font-family="Helvetica">
8
</text>
<text x="326" y="405" fill="black" font-size="21" font-family="Helvetica">
10
</text>
<text x="376" y="405" fill="black" font-size="21" font-family="Helvetica">
12
</text>
<text x="427" y="405" fill="black" font-size="21" font-family="Helvetica">
14
</text>
<path d="M85,45h 354" fill="none" stroke="black"/>
<path d="M85,54v -9" fill="none" stroke="black"/>
<path d="M98,50v -5" fill="none" stroke="black"/>
<path d="M110,50v -5" fill="none" stroke="black"/>
<path d="M123,50v -5" fill="none" stroke="black"/>
<path d="M136,54v -9" fill="none" stroke="black"/>
<path d="M148,50v -5" fill="none" stroke="black"/>
<path d="M161,50v -5" fill="none" stroke="black"/>
<path d="M174,50v -5" fill="none" stroke="black"/>
<path d="M186,54v -9" fill="none" stroke="black"/>
<path d="M199,50v -5" fill="none" stroke="black"/>
<path d="M212,50v -5" fill="none" stroke="black"/>
<path d="M224,50v -5" fill="none" stroke="black"/>
<path d="M237,54v -9" fill="none" stroke="black"/>
<path d="M250,50v -5" fill="none" stroke="black"/>
<path d="M262,50v -5" fill="none" stroke="black"/>
<path d="M275,50v -5" fill="none" stroke="black"/>
<path d="M288,54v -9" fill="none" stroke="black"/>
<path d="M300,50v -5" fill="none" stroke="black"/>
<path d="M313,50v -5" fill="none" stroke="black"/>
<path d="M325,50v -5" fill="none" stroke="black"/>
<path d="M338,54v -9" fill="none" stroke="black"/>
<path d="M351,50v -5" fill="none" stroke="black"/>
<path d="M363,50v -5" fill="none" stroke="black"/>
<path d="M376,50v -5" fill="none" stroke="black"/>
<path d="M389,54v -9" fill="none" stroke="black"/>
<path d="M401,50v -5" fill="none" stroke="black"/>
<path d="M414,50v -5" fill="none" stroke="black"/>
<path d="M427,50v -5" fill="none" stroke="black"/>
<path d="M439,54v -9" fill="none" stroke="black"/>
<path d="M439,54v -9" fill="none" stroke="black"/>
<path d="M85,385v -340" fill="none" stroke="black"/>
<g transform="rotate(-90,34,245)">
<text x="34" y="245" fill="black" font-size="21" font-family="Helvetica">
y [mm]
</text>
</g>
<path d="M98,385h -13" fill="none" stroke="black"/>
<path d="M91,373h -6" fill="none" stroke="black"/>
<path d="M91,361h -6" fill="none" stroke="black"/>
<path d="M91,349h -6" fill="none" stroke="black"/>
<path d="M98,337h -13" fill="none" stroke="black"/>
<path d="M91,324h -6" fill="none" stroke="black"/>
<path d="M91,312h -6" fill="none" stroke="black"/>
<path d="M91,300h -6" fill="none" stroke="black"/>
<path d="M98,288h -13" fill="none" stroke="black"/>
<path d="M91,276h -6" fill="none" stroke="black"/>
<path d="M91,264h -6" fill="none" stroke="black"/>
<path d="M91,252h -6" fill="none" stroke="black"/>
<path d="M98,239h -13" fill="none" stroke="black"/>
<path d="M91,227h -6" fill="none" stroke="black"/>
<path d="M91,215h -6" fill="none" stroke="black"/>
<path d="M91,203h -6" fill="none" stroke="black"/>
<path d="M98,191h -13" fill="none" stroke="black"/>
<path d="M91,179h -6" fill="none" stroke="black"/>
<path d="M91,167h -6" fill="none" stroke="black"/>
<path d="M91,155h -6" fill="none" stroke="black"/>
<path d="M98,142h -13" fill="none" stroke="black"/>
<path d="M91,130h -6" fill="none" stroke="black"/>
<path d="M91,118h -6" fill="none" stroke="black"/>
<path d="M91,106h -6" fill="none" stroke="black"/>
<path d="M98,94h -13" fill="none" stroke="black"/>
<path d="M91,82h -6" fill="none" stroke="black"/>
<path d="M91,70h -6" fill="none" stroke="black"/>
<path d="M91,58h -6" fill="none" stroke="black"/>
<path d="M98,45h -13" fill="none" stroke="black"/>
<text x="70" y="393" fill="black" font-size="21" font-family="Helvetica">
0
</text>
<text x="70" y="345" fill="black" font-size="21" font-family="Helvetica">
2
</text>
<text x="70" y="296" fill="black" font-size="21" font-family="Helvetica">
4
</text>
<text x="70" y="247" fill="black" font-size="21" font-family="Helvetica">
6
</text>
<text x="70" y="199" fill="black" font-size="21" font-family="Helvetica">
8
</text>
<text x="59" y="150" fill="black" font-size="21" font-family="Helvetica">
10
</text>
<text x="59" y="102" fill="black" font-size="21" font-family="Helvetica">
12
</text>
<text x="58" y="54" fill="black" font-size="21" font-family="Helvetica">
14
</text>
<path d="M439,385v -340" fill="none" stroke="black"/>
<path d="M427,385h 12" fill="none" stroke="black"/>
<path d="M433,373h 6" fill="none" stroke="black"/>
<path d="M433,361h 6" fill="none" stroke="black"/>
<path d="M433,349h 6" fill="none" stroke="black"/>
<path d="M427,337h 12" fill="none" stroke="black"/>
<path d="M433,324h 6" fill="none" stroke="black"/>
<path d="M433,312h 6" fill="none" stroke="black"/>
<path d="M433,300h 6" fill="none" stroke="black"/>
<path d="M427,288h 12" fill="none" stroke="black"/>
<path d="M433,276h 6" fill="none" stroke="black"/>
<path d="M433,264h 6" fill="none" stroke="black"/>
<path d="M433,252h 6" fill="none" stroke="black"/>
<path d="M427,239h 12" fill="none" stroke="black"/>
<path d="M433,227h 6" fill="none" stroke="black"/>
<path d="M433,215h 6" fill="none" stroke="black"/>
<path d="M433,203h 6" fill="none" stroke="black"/>
<path d="M427,191h 12" fill="none" stroke="black"/>
<path d="M433,179h 6" fill="none" stroke="black"/>
<path d="M433,167h 6" fill="none" stroke="black"/>
<path d="M433,155h 6" fill="none" stroke="black"/>
<path d="M427,142h 12" fill="none" stroke="black"/>
<path d="M433,130h 6" fill="none" stroke="black"/>
<path d="M433,118h 6" fill="none" stroke="black"/>
<path d="M433,106h 6" fill="none" stroke="black"/>
<path d="M427,94h 12" fill="none" stroke="black"/>
<path d="M433,82h 6" fill="none" stroke="black"/>
<path d="M433,70h 6" fill="none" stroke="black"/>
<path d="M433,58h 6" fill="none" stroke="black"/>
<path d="M427,45h 12" fill="none" stroke="black"/>
<rect x="442" y="384" width="26" height="1" fill="#0000ff"/>
<rect x="442" y="382" width="26" height="2" fill="#0100fe"/>
<rect x="442" y="381" width="26" height="1" fill="#0200fd"/>
<rect x="442" y="380" width="26" height="1" fill="#0300fc"/>
<rect x="442" y="378" width="26" height="2" fill="#0400fb"/>
<rect x="442" y="377" width="26" height="1" fill="#0500fa"/>
<rect x="442" y="376" width="26" height="1" fill="#0600f9"/>
<rect x="442" y="374" width="26" height="2" fill="#0700f8"/>
<rect x="442" y="373" width="26" height="1" fill="#0800f7"/>
<rect x="442" y="372" width="26" height="1" fill="#0900f6"/>
<rect x="442" y="370" width="26" height="2" fill="#0a00f5"/>
<rect x="442" y="369" width="26" height="1" fill="#0b00f4"/>
<rect x="442" y="368" width="26" height="1" fill="#0c00f3"/>
<rect x="442" y="366" width="26" height="2" fill="#0d00f2"/>
<rect x="442" y="365" width="26" height="1" fill="#0e00f1"/>
<rect x="442" y="364" width="26" height="1" fill="#0f00f0"/>
<rect x="442" y="362" width="26" height="2" fill="#1000ef"/>
<rect x="442" y="361" width="26" height="1" fill="#1100ee"/>
<rect x="442" y="360" width="26" height="1" fill="#1200ed"/>
<rect x="442" y="358" width="26" height="2" fill="#1300ec"/>
<rect x="442" y="357" width="26" height="1" fill="#1400eb"/>
<rect x="442" y="356" width="26" height="1" fill="#1500ea"/>
<rect x="442" y="354" width="26" height="2" fill="#1600e9"/>
<rect x="442" y="353" width="26" height="1" fill="#1700e8"/>
<rect x="442" y="352" width="26" height="1" fill="#1800e7"/>
<rect x="442" y="350" width="26" height="2" fill="#1900e6"/>
<rect x="442" y="349" width="26" height="1" fill="#1a00e5"/>
<rect x="442" y="348" width="26" height="1" fill="#1b00e4"/>
<rect x="442" y="346" width="26" height="2" fill="#1c00e3"/>
<rect x="442" y="345" width="26" height="1" fill="#1d00e2"/>
<rect x="442" y="344" width="26" height="1" fill="#1e00e1"/>
<rect x="442" y="342" width="26" height="2" fill="#1f00e0"/>
<rect x="442" y="341" width="26" height="1" fill="#2000df"/>
<rect x="442" y="340" width="26" height="1" fill="#2100de"/>
<rect x="442" y="338" width="26" height="2" fill="#2200dd"/>
<rect x="442" y="337" width="26" height="1" fill="#2300dc"/>
<rect x="442" y="336" width="26" height="1" fill="#2400db"/>
<rect x="442" y="334" width="26" height="2" fill="#2500da"/>
<rect x="442" y="333" width="26" height="1" fill="#2600d9"/>
<rect x="442" y="332" width="26" height="1" fill="#2700d8"/>
<rect x="442" y="330" width="26" height="2" fill="#2800d7"/>
<rect x="442" y="329" width="26" height="1" fill="#2900d6"/>
<rect x="442" y="328" width="26" height="1" fill="#2a00d5"/>
<rect x="442" y="326" width="26" height="2" fill="#2b00d4"/>
<rect x="442" y="325" width="26" height="1" fill="#2c00d3"/>
<rect x="442" y="324" width="26" height="1" fill="#2d00d2"/>
<rect x="442" y="322" width="26" height="2" fill="#2e00d1"/>
<rect x="442" y="321" width="26" height="1" fill="#2f00d0"/>
<rect x="442" y="320" width="26" height="1" fill="#3000cf"/>
<rect x="442" y="318" width="26" height="2" fill="#3100ce"/>
<rect x="442" y="317" width="26" height="1" fill="#3200cd"/>
<rect x="442" y="316" width="26" height="1" fill="#3300cc"/>
<rect x="442" y="314" width="26" height="2" fill="#3400cb"/>
<rect x="442" y="313" width="26" height="1" fill="#3500ca"/>
<rect x="442" y="312" width="26" height="1" fill="#3600c9"/>
<rect x="442" y="310" width="26" height="2" fill="#3700c8"/>
<rect x="442" y="309" width="26" height="1" fill="#3800c7"/>
<rect x="442" y="308" width="26" height="1" fill="#3900c6"/>
<rect x="442" y="306" width="26" height="2" fill="#3a00c5"/>
<rect x="442" y="305" width="26" height="1" fill="#3b00c4"/>
<rect x="442" y="304" width="26" height="1" fill="#3c00c3"/>
<rect x="442" y="302" width="26" height="2" fill="#3d00c2"/>
<rect x="442" y="301" width="26" height="1" fill="#3e00c1"/>
<rect x="442" y="300" width="26" height="1" fill="#3f00c0"/>
<rect x="442" y="298" width="26" height="2" fill="#4000bf"/>
<rect x="442" y="297" width="26" height="1" fill="#4100be"/>
<rect x="442" y="296" width="26" height="1" fill="#4200bd"/>
<rect x="442" y="294" width="26" height="2" fill="#4300bc"/>
<rect x="442" y="293" width="26" height="1" fill="#4400bb"/>
<rect x="442" y="292" width="26" height="1" fill="#4500ba"/>
<rect x="442" y="290" width="26" height="2" fill="#4600b9"/>
<rect x="442" y="289" width="26" height="1" fill="#4700b8"/>
<rect x="442" y="288" width="26" height="1" fill="#4800b7"/>
<rect x="442" y="286" width="26" height="2" fill="#4900b6"/>
<rect x="442" y="285" width="26" height="1" fill="#4a00b5"/>
<rect x="442" y="284" width="26" height="1" fill="#4b00b4"/>
<rect x="442" y="282" width="26" height="2" fill="#4c00b3"/>
<rect x="442" y="281" width="26" height="1" fill="#4d00b2"/>
<rect x="442" y="280" width="26" height="1" fill="#4e00b1"/>
<rect x="442" y="278" width="26" height="2" fill="#4f00b0"/>
<rect x="442" y="277" width="26" height="1" fill="#5000af"/>
<rect x="442" y="276" width="26" height="1" fill="#5100ae"/>
<rect x="442" y="275" width="26" height="1" fill="#5200ad"/>
<rect x="442" y="273" width="26" height="2" fill="#5300ac"/>
<rect x="442" y="272" width="26" height="1" fill="#5400ab"/>
<rect x="442" y="271" width="26" height="1" fill="#5500aa"/>
<rect x="442" y="269" width="26" height="2" fill="#5600a9"/>
<rect x="442" y="268" width="26" height="1" fill="#5700a8"/>
<rect x="442" y="267" width="26" height="1" fill="#5800a7"/>
<rect x="442" y="265" width="26" height="2" fill="#5900a6"/>
<rect x="442" y="264" width="26" height="1" fill="#5a00a5"/>
<rect x="442" y="263" width="26" height="1" fill="#5b00a4"/>
<rect x="442" y="261" width="26" height="2" fill="#5c00a3"/>
<rect x="442" y="260" width="26" height="1" fill="#5d00a2"/>
<rect x="442" y="259" width="26" height="1" fill="#5e00a1"/>
<rect x="442" y="257" width="26" height="2" fill="#5f00a0"/>
<rect x="442" y="256" width="26" height="1" fill="#60009f"/>
<rect x="442" y="255" width="26" height="1" fill="#61009e"/>
<rect x="442" y="253" width="26" height="2" fill="#62009d"/>
<rect x="442" y="252" width="26" height="1" fill="#63009c"/>
<rect x="442" y="251" width="26" height="1" fill="#64009b"/>
<rect x="442" y="249" width="26" height="2" fill="#65009a"/>
<rect x="442" y="248" width="26" height="1" fill="#660099"/>
<rect x="442" y="247" width="26" height="1" fill="#670098"/>
<rect x="442" y="245" width="26" height="2" fill="#680097"/>
<rect x="442" y="244" width="26" height="1" fill="#690096"/>
<rect x="442" y="243" width="26" height="1" fill="#6a0095"/>
<rect x="442" y="241" width="26" height="2" fill="#6b0094"/>
<rect x="442" y="240" width="26" height="1" fill="#6c0093"/>
<rect x="442" y="239" width="26" height="1" fill="#6d0092"/>
<rect x="442" y="237" width="26" height="2" fill="#6e0091"/>
<rect x="442" y="236" width="26" height="1" fill="#6f0090"/>
<rect x="442" y="235" width="26" height="1" fill="#70008f"/>
<rect x="442" y="233" width="26" height="2" fill="#71008e"/>
<rect x="442" y="232" width="26" height="1" fill="#72008d"/>
<rect x="442" y="231" width="26" height="1" fill="#73008c"/>
<rect x="442" y="229" width="26" height="2" fill="#74008b"/>
<rect x="442" y="228" width="26" height="1" fill="#75008a"/>
<rect x="442" y="227" width="26" height="1" fill="#760089"/>
<rect x="442" y="225" width="26" height="2" fill="#770088"/>
<rect x="442" y="224" width="26" height="1" fill="#780087"/>
<rect x="442" y="223" width="26" height="1" fill="#790086"/>
<rect x="442" y="221" width="26" height="2" fill="#7a0085"/>
<rect x="442" y="220" width="26" height="1" fill="#7b0084"/>
<rect x="442" y="219" width="26" height="1" fill="#7c0083"/>
<rect x="442" y="217" width="26" height="2" fill="#7d0082"/>
<rect x="442" y="216" width="26" height="1" fill="#7e0081"/>
<rect x="442" y="215" width="26" height="1" fill="#7f0080"/>
<rect x="442" y="213" width="26" height="2" fill="#80007f"/>
<rect x="442" y="212" width="26" height="1" fill="#81007e"/>
<rect x="442" y="211" width="26" height="1" fill="#82007d"/>
<rect x="442" y="209" width="26" height="2" fill="#83007c"/>
<rect x="442" y="208" width="26" height="1" fill="#84007b"/>
<rect x="442" y="207" width="26" height="1" fill="#85007a"/>
<rect x="442" y="205" width="26" height="2" fill="#860079"/>
<rect x="442" y="204" width="26" height="1" fill="#870078"/>
<rect x="442" y="203" width="26" height="1" fill="#880077"/>
<rect x="442" y="201" width="26" height="2" fill="#890076"/>
<rect x="442" y="200" width="26" height="1" fill="#8a0075"/>
<rect x="442" y="199" width="26" height="1" fill="#8b0074"/>
<rect x="442" y="197" width="26" height="2" fill="#8c0073"/>
<rect x="442" y="196" width="26" height="1" fill="#8d0072"/>
<rect x="442" y="195" width="26" height="1" fill="#8e0071"/>
<rect x="442" y="193" width="26" height="2" fill="#8f0070"/>
<rect x="442" y="192" width="26" height="1" fill="#90006f"/>
<rect x="442" y="191" width="26" height="1" fill="#91006e"/>
<rect x="442" y="189" width="26" height="2" fill="#92006d"/>
<rect x="442" y="188" width="26" height="1" fill="#93006c"/>
<rect x="442" y="187" width="26" height="1" fill="#94006b"/>
<rect x="442" y="185" width="26" height="2" fill="#95006a"/>
<rect x="442" y="184" width="26" height="1" fill="#960069"/>
<rect x="442" y="183" width="26" height="1" fill="#970068"/>
<rect x="442" y="181" width="26" height="2" fill="#980067"/>
<rect x="442" y="180" width="26" height="1" fill="#990066"/>
<rect x="442" y="179" width="26" height="1" fill="#9a0065"/>
<rect x="442" y="177" width="26" height="2" fill="#9b0064"/>
<rect x="442" y="176" width="26" height="1" fill="#9c0063"/>
<rect x="442" y="175" width="26" height="1" fill="#9d0062"/>
<rect x="442" y="173" width="26" height="2" fill="#9e0061"/>
<rect x="442" y="172" width="26" height="1" fill="#9f0060"/>
<rect x="442" y="171" width="26" height="1" fill="#a0005f"/>
<rect x="442" y="169" width="26" height="2" fill="#a1005e"/>
<rect x="442" y="168" width="26" height="1" fill="#a2005d"/>
<rect x="442" y="167" width="26" height="1" fill="#a3005c"/>
<rect x="442" y="165" width="26" height="2" fill="#a4005b"/>
<rect x="442" y="164" width="26" height="1" fill="#a5005a"/>
<rect x="442" y="163" width="26" height="1" fill="#a60059"/>
<rect x="442" y="161" width="26" height="2" fill="#a70058"/>
<rect x="442" y="160" width="26" height="1" fill="#a80057"/>
<rect x="442" y="159" width="26" height="1" fill="#a90056"/>
<rect x="442" y="157" width="26" height="2" fill="#aa0055"/>
<rect x="442" y="156" width="26" height="1" fill="#ab0054"/>
<rect x="442" y="155" width="26" height="1" fill="#ac0053"/>
<rect x="442" y="153" width="26" height="2" fill="#ad0052"/>
<rect x="442" y="152" width="26" height="1" fill="#ae0051"/>
<rect x="442" y="151" width="26" height="1" fill="#af0050"/>
<rect x="442" y="149" width="26" height="2" fill="#b0004f"/>
<rect x="442" y="148" width="26" height="1" fill="#b1004e"/>
<rect x="442" y="147" width="26" height="1" fill="#b2004d"/>
<rect x="442" y="145" width="26" height="2" fill="#b3004c"/>
<rect x="442" y="144" width="26" height="1" fill="#b4004b"/>
<rect x="442" y="143" width="26" height="1" fill="#b5004a"/>
<rect x="442" y="141" width="26" height="2" fill="#b60049"/>
<rect x="442" y="140" width="26" height="1" fill="#b70048"/>
<rect x="442" y="139" width="26" height="1" fill="#b80047"/>
<rect x="442" y="137" width="26" height="2" fill="#b90046"/>
<rect x="442" y="136" width="26" height="1" fill="#ba0045"/>
<rect x="442" y="135" width="26" height="1" fill="#bb0044"/>
<rect x="442" y="133" width="26" height="2" fill="#bc0043"/>
<rect x="442" y="132" width="26" height="1" fill="#bd0042"/>
<rect x="442" y="131" width="26" height="1" fill="#be0041"/>
<rect x="442" y="129" width="26" height="2" fill="#bf0040"/>
<rect x="442" y="128" width="26" height="1" fill="#c0003f"/>
<rect x="442" y="127" width="26" height="1" fill="#c1003e"/>
<rect x="442" y="125" width="26" height="2" fill="#c2003d"/>
<rect x="442" y="124" width="26" height="1" fill="#c3003c"/>
<rect x="442" y="123" width="26" height="1" fill="#c4003b"/>
<rect x="442" y="121" width="26" height="2" fill="#c5003a"/>
<rect x="442" y="120" width="26" height="1" fill="#c60039"/>
<rect x="442" y="119" width="26" height="1" fill="#c70038"/>
<rect x="442" y="117" width="26" height="2" fill="#c80037"/>
<rect x="442" y="116" width="26" height="1" fill="#c90036"/>
<rect x="442" y="115" width="26" height="1" fill="#ca0035"/>
<rect x="442" y="113" width="26" height="2" fill="#cb0034"/>
<rect x="442" y="112" width="26" height="1" fill="#cc0033"/>
<rect x="442" y="111" width="26" height="1" fill="#cd0032"/>
<rect x="442" y="109" width="26" height="2" fill="#ce0031"/>
<rect x="442" y="108" width="26" height="1" fill="#cf0030"/>
<rect x="442" y="107" width="26" height="1" fill="#d0002f"/>
<rect x="442" y="105" width="26" height="2" fill="#d1002e"/>
<rect x="442" y="104" width="26" height="1" fill="#d2002d"/>
<rect x="442" y="103" width="26" height="1" fill="#d3002c"/>
<rect x="442" y="101" width="26" height="2" fill="#d4002b"/>
<rect x="442" y="100" width="26" height="1" fill="#d5002a"/>
<rect x="442" y="99" width="26" height="1" fill="#d60029"/>
<rect x="442" y="97" width="26" height="2" fill="#d70028"/>
<rect x="442" y="96" width="26" height="1" fill="#d80027"/>
<rect x="442" y="95" width="26" height="1" fill="#d90026"/>
<rect x="442" y="93" width="26" height="2" fill="#da0025"/>
<rect x="442" y="92" width="26" height="1" fill="#db0024"/>
<rect x="442" y="91" width="26" height="1" fill="#dc0023"/>
<rect x="442" y="89" width="26" height="2" fill="#dd0022"/>
<rect x="442" y="88" width="26" height="1" fill="#de0021"/>
<rect x="442" y="87" width="26" height="1" fill="#df0020"/>
<rect x="442" y="85" width="26" height="2" fill="#e0001f"/>
<rect x="442" y="84" width="26" height="1" fill="#e1001e"/>
<rect x="442" y="83" width="26" height="1" fill="#e2001d"/>
<rect x="442" y="81" width="26" height="2" fill="#e3001c"/>
<rect x="442" y="80" width="26" height="1" fill="#e4001b"/>
<rect x="442" y="79" width="26" height="1" fill="#e5001a"/>
<rect x="442" y="77" width="26" height="2" fill="#e60019"/>
<rect x="442" y="76" width="26" height="1" fill="#e70018"/>
<rect x="442" y="75" width="26" height="1" fill="#e80017"/>
<rect x="442" y="73" width="26" height="2" fill="#e90016"/>
<rect x="442" y="72" width="26" height="1" fill="#ea0015"/>
<rect x="442" y="71" width="26" height="1" fill="#eb0014"/>
<rect x="442" y="69" width="26" height="2" fill="#ec0013"/>
<rect x="442" y="68" width="26" height="1" fill="#ed0012"/>
<rect x="442" y="67" width="26" height="1" fill="#ee0011"/>
<rect x="442" y="65" width="26" height="2" fill="#ef0010"/>
<rect x="442" y="64" width="26" height="1" fill="#f0000f"/>
<rect x="442" y="63" width="26" height="1" fill="#f1000e"/>
<rect x="442" y="61" width="26" height="2" fill="#f2000d"/>
<rect x="442" y="60" width="26" height="1" fill="#f3000c"/>
<rect x="442" y="59" width="26" height="1" fill="#f4000b"/>
<rect x="442" y="57" width="26" height="2" fill="#f5000a"/>
<rect x="442" y="56" width="26" height="1" fill="#f60009"/>
<rect x="442" y="55" width="26" height="1" fill="#f70008"/>
<rect x="442" y="53" width="26" height="2" fill="#f80007"/>
<rect x="442" y="52" width="26" height="1" fill="#f90006"/>
<rect x="442" y="51" width="26" height="1" fill="#fa0005"/>
<rect x="442" y="49" width="26" height="2" fill="#fb0004"/>
<rect x="442" y="48" width="26" height="1" fill="#fc0003"/>
<rect x="442" y="47" width="26" height="1" fill="#fd0002"/>
<rect x="442" y="45" width="26" height="2" fill="#fe0001"/>
<path d="M468,385v -340" fill="none" stroke="black"/>
<g transform="rotate(-90,553,271)">
<text x="553" y="271" fill="black" font-size="21" font-family="Helvetica">
Flux fraction
</text>
</g>
<path d="M455,385h 13" fill="none" stroke="black"/>
<path d="M455,338h 13" fill="none" stroke="black"/>
<path d="M455,291h 13" fill="none" stroke="black"/>
<path d="M455,244h 13" fill="none" stroke="black"/>
<path d="M455,197h 13" fill="none" stroke="black"/>
<path d="M455,150h 13" fill="none" stroke="black"/>
<path d="M455,103h 13" fill="none" stroke="black"/>
<path d="M455,56h 13" fill="none" stroke="black"/>
<path d="M455,56h 13" fill="none" stroke="black"/>
<text x="470" y="393" fill="black" font-size="21" font-family="Helvetica">
0
</text>
<text x="470" y="345" fill="black" font-size="21" font-family="Helvetica">
0.01
</text>
<text x="470" y="299" fill="black" font-size="21" font-family="Helvetica">
0.02
</text>
<text x="470" y="252" fill="black" font-size="21" font-family="Helvetica">
0.03
</text>
<text x="470" y="204" fill="black" font-size="21" font-family="Helvetica">
0.04
</text>
<text x="470" y="158" fill="black" font-size="21" font-family="Helvetica">
0.05
</text>
<text x="470" y="110" fill="black" font-size="21" font-family="Helvetica">
0.06
</text>
<text x="470" y="63" fill="black" font-size="21" font-family="Helvetica">
0.07
</text>
<rect x="199" y="155" width="126" height="121" fill="none" stroke="#ff0000"/></svg>
