<?xml version="1.0" standalone="no"?>
<svg width="567" height="345" viewBox="0 0 567 345" xmlns="http://www.w3.org/2000/svg">
<title>
results/sar-txrtXX-70-InGrid-CAST-MkII-Mylar2000nmAl40nm-Mylar900nm-gold80-StatErrorsOff-SystErrorsOff-srt20142015-expected.svg
</title>
<desc>
Creator: ROOT Version 5.34/14
CreationDate: Mon Jan 28 15:27:17 2019</desc>
<defs>
</defs>
<rect x="0" y="0" width="567" height="345" fill="white"/>
<rect x="85" y="34" width="454" height="259" fill="white"/>
<rect x="85" y="34" width="454" height="259" fill="none" stroke="black"/>
<path d="M85,293h 454" fill="none" stroke="black"/>
<text x="367" y="335" fill="black" font-size="11" font-family="Helvetica">
m
</text>
<text x="359" y="327" fill="black" font-size="16" font-family="Times">
&#0946;
</text>
<text x="248" y="327" fill="black" font-size="16" font-family="Helvetica">
matter coupling 
</text>
<path d="M85,285v 8" fill="none" stroke="black"/>
<text x="89" y="307" fill="black" font-size="11" font-family="Helvetica">
-2
</text>
<text x="72" y="314" fill="black" font-size="16" font-family="Helvetica">
10
</text>
<path d="M93,289v 4" fill="none" stroke="black"/>
<path d="M97,289v 4" fill="none" stroke="black"/>
<path d="M100,289v 4" fill="none" stroke="black"/>
<path d="M103,289v 4" fill="none" stroke="black"/>
<path d="M105,289v 4" fill="none" stroke="black"/>
<path d="M106,289v 4" fill="none" stroke="black"/>
<path d="M108,289v 4" fill="none" stroke="black"/>
<path d="M109,289v 4" fill="none" stroke="black"/>
<path d="M110,285v 8" fill="none" stroke="black"/>
<path d="M118,289v 4" fill="none" stroke="black"/>
<path d="M122,289v 4" fill="none" stroke="black"/>
<path d="M125,289v 4" fill="none" stroke="black"/>
<path d="M128,289v 4" fill="none" stroke="black"/>
<path d="M130,289v 4" fill="none" stroke="black"/>
<path d="M132,289v 4" fill="none" stroke="black"/>
<path d="M133,289v 4" fill="none" stroke="black"/>
<path d="M134,289v 4" fill="none" stroke="black"/>
<path d="M135,285v 8" fill="none" stroke="black"/>
<text x="135" y="315" text-anchor="middle" fill="black" font-size="16" font-family="Helvetica">
1
</text>
<path d="M143,289v 4" fill="none" stroke="black"/>
<path d="M147,289v 4" fill="none" stroke="black"/>
<path d="M151,289v 4" fill="none" stroke="black"/>
<path d="M153,289v 4" fill="none" stroke="black"/>
<path d="M155,289v 4" fill="none" stroke="black"/>
<path d="M157,289v 4" fill="none" stroke="black"/>
<path d="M158,289v 4" fill="none" stroke="black"/>
<path d="M159,289v 4" fill="none" stroke="black"/>
<path d="M161,285v 8" fill="none" stroke="black"/>
<path d="M168,289v 4" fill="none" stroke="black"/>
<path d="M173,289v 4" fill="none" stroke="black"/>
<path d="M176,289v 4" fill="none" stroke="black"/>
<path d="M178,289v 4" fill="none" stroke="black"/>
<path d="M180,289v 4" fill="none" stroke="black"/>
<path d="M182,289v 4" fill="none" stroke="black"/>
<path d="M183,289v 4" fill="none" stroke="black"/>
<path d="M185,289v 4" fill="none" stroke="black"/>
<path d="M186,285v 8" fill="none" stroke="black"/>
<text x="191" y="307" fill="black" font-size="11" font-family="Helvetica">
2
</text>
<text x="174" y="314" fill="black" font-size="16" font-family="Helvetica">
10
</text>
<path d="M193,289v 4" fill="none" stroke="black"/>
<path d="M198,289v 4" fill="none" stroke="black"/>
<path d="M201,289v 4" fill="none" stroke="black"/>
<path d="M203,289v 4" fill="none" stroke="black"/>
<path d="M205,289v 4" fill="none" stroke="black"/>
<path d="M207,289v 4" fill="none" stroke="black"/>
<path d="M209,289v 4" fill="none" stroke="black"/>
<path d="M210,289v 4" fill="none" stroke="black"/>
<path d="M211,285v 8" fill="none" stroke="black"/>
<path d="M219,289v 4" fill="none" stroke="black"/>
<path d="M223,289v 4" fill="none" stroke="black"/>
<path d="M226,289v 4" fill="none" stroke="black"/>
<path d="M229,289v 4" fill="none" stroke="black"/>
<path d="M231,289v 4" fill="none" stroke="black"/>
<path d="M232,289v 4" fill="none" stroke="black"/>
<path d="M234,289v 4" fill="none" stroke="black"/>
<path d="M235,289v 4" fill="none" stroke="black"/>
<path d="M236,285v 8" fill="none" stroke="black"/>
<text x="242" y="307" fill="black" font-size="11" font-family="Helvetica">
4
</text>
<text x="224" y="314" fill="black" font-size="16" font-family="Helvetica">
10
</text>
<path d="M244,289v 4" fill="none" stroke="black"/>
<path d="M248,289v 4" fill="none" stroke="black"/>
<path d="M251,289v 4" fill="none" stroke="black"/>
<path d="M254,289v 4" fill="none" stroke="black"/>
<path d="M256,289v 4" fill="none" stroke="black"/>
<path d="M258,289v 4" fill="none" stroke="black"/>
<path d="M259,289v 4" fill="none" stroke="black"/>
<path d="M260,289v 4" fill="none" stroke="black"/>
<path d="M261,285v 8" fill="none" stroke="black"/>
<path d="M269,289v 4" fill="none" stroke="black"/>
<path d="M273,289v 4" fill="none" stroke="black"/>
<path d="M277,289v 4" fill="none" stroke="black"/>
<path d="M279,289v 4" fill="none" stroke="black"/>
<path d="M281,289v 4" fill="none" stroke="black"/>
<path d="M283,289v 4" fill="none" stroke="black"/>
<path d="M284,289v 4" fill="none" stroke="black"/>
<path d="M285,289v 4" fill="none" stroke="black"/>
<path d="M287,285v 8" fill="none" stroke="black"/>
<text x="292" y="307" fill="black" font-size="11" font-family="Helvetica">
6
</text>
<text x="275" y="314" fill="black" font-size="16" font-family="Helvetica">
10
</text>
<path d="M294,289v 4" fill="none" stroke="black"/>
<path d="M299,289v 4" fill="none" stroke="black"/>
<path d="M302,289v 4" fill="none" stroke="black"/>
<path d="M304,289v 4" fill="none" stroke="black"/>
<path d="M306,289v 4" fill="none" stroke="black"/>
<path d="M308,289v 4" fill="none" stroke="black"/>
<path d="M309,289v 4" fill="none" stroke="black"/>
<path d="M311,289v 4" fill="none" stroke="black"/>
<path d="M312,285v 8" fill="none" stroke="black"/>
<path d="M319,289v 4" fill="none" stroke="black"/>
<path d="M324,289v 4" fill="none" stroke="black"/>
<path d="M327,289v 4" fill="none" stroke="black"/>
<path d="M329,289v 4" fill="none" stroke="black"/>
<path d="M331,289v 4" fill="none" stroke="black"/>
<path d="M333,289v 4" fill="none" stroke="black"/>
<path d="M335,289v 4" fill="none" stroke="black"/>
<path d="M336,289v 4" fill="none" stroke="black"/>
<path d="M337,285v 8" fill="none" stroke="black"/>
<text x="342" y="307" fill="black" font-size="11" font-family="Helvetica">
8
</text>
<text x="325" y="314" fill="black" font-size="16" font-family="Helvetica">
10
</text>
<path d="M345,289v 4" fill="none" stroke="black"/>
<path d="M349,289v 4" fill="none" stroke="black"/>
<path d="M352,289v 4" fill="none" stroke="black"/>
<path d="M355,289v 4" fill="none" stroke="black"/>
<path d="M357,289v 4" fill="none" stroke="black"/>
<path d="M358,289v 4" fill="none" stroke="black"/>
<path d="M360,289v 4" fill="none" stroke="black"/>
<path d="M361,289v 4" fill="none" stroke="black"/>
<path d="M362,285v 8" fill="none" stroke="black"/>
<path d="M370,289v 4" fill="none" stroke="black"/>
<path d="M374,289v 4" fill="none" stroke="black"/>
<path d="M377,289v 4" fill="none" stroke="black"/>
<path d="M380,289v 4" fill="none" stroke="black"/>
<path d="M382,289v 4" fill="none" stroke="black"/>
<path d="M383,289v 4" fill="none" stroke="black"/>
<path d="M385,289v 4" fill="none" stroke="black"/>
<path d="M386,289v 4" fill="none" stroke="black"/>
<path d="M387,285v 8" fill="none" stroke="black"/>
<text x="390" y="307" fill="black" font-size="11" font-family="Helvetica">
10
</text>
<text x="373" y="314" fill="black" font-size="16" font-family="Helvetica">
10
</text>
<path d="M395,289v 4" fill="none" stroke="black"/>
<path d="M399,289v 4" fill="none" stroke="black"/>
<path d="M403,289v 4" fill="none" stroke="black"/>
<path d="M405,289v 4" fill="none" stroke="black"/>
<path d="M407,289v 4" fill="none" stroke="black"/>
<path d="M409,289v 4" fill="none" stroke="black"/>
<path d="M410,289v 4" fill="none" stroke="black"/>
<path d="M411,289v 4" fill="none" stroke="black"/>
<path d="M413,285v 8" fill="none" stroke="black"/>
<path d="M420,289v 4" fill="none" stroke="black"/>
<path d="M425,289v 4" fill="none" stroke="black"/>
<path d="M428,289v 4" fill="none" stroke="black"/>
<path d="M430,289v 4" fill="none" stroke="black"/>
<path d="M432,289v 4" fill="none" stroke="black"/>
<path d="M434,289v 4" fill="none" stroke="black"/>
<path d="M435,289v 4" fill="none" stroke="black"/>
<path d="M437,289v 4" fill="none" stroke="black"/>
<path d="M438,285v 8" fill="none" stroke="black"/>
<text x="440" y="307" fill="black" font-size="11" font-family="Helvetica">
12
</text>
<text x="423" y="314" fill="black" font-size="16" font-family="Helvetica">
10
</text>
<path d="M445,289v 4" fill="none" stroke="black"/>
<path d="M450,289v 4" fill="none" stroke="black"/>
<path d="M453,289v 4" fill="none" stroke="black"/>
<path d="M455,289v 4" fill="none" stroke="black"/>
<path d="M457,289v 4" fill="none" stroke="black"/>
<path d="M459,289v 4" fill="none" stroke="black"/>
<path d="M461,289v 4" fill="none" stroke="black"/>
<path d="M462,289v 4" fill="none" stroke="black"/>
<path d="M463,285v 8" fill="none" stroke="black"/>
<path d="M471,289v 4" fill="none" stroke="black"/>
<path d="M475,289v 4" fill="none" stroke="black"/>
<path d="M478,289v 4" fill="none" stroke="black"/>
<path d="M481,289v 4" fill="none" stroke="black"/>
<path d="M483,289v 4" fill="none" stroke="black"/>
<path d="M484,289v 4" fill="none" stroke="black"/>
<path d="M486,289v 4" fill="none" stroke="black"/>
<path d="M487,289v 4" fill="none" stroke="black"/>
<path d="M488,285v 8" fill="none" stroke="black"/>
<text x="491" y="307" fill="black" font-size="11" font-family="Helvetica">
14
</text>
<text x="474" y="314" fill="black" font-size="16" font-family="Helvetica">
10
</text>
<path d="M496,289v 4" fill="none" stroke="black"/>
<path d="M500,289v 4" fill="none" stroke="black"/>
<path d="M503,289v 4" fill="none" stroke="black"/>
<path d="M506,289v 4" fill="none" stroke="black"/>
<path d="M508,289v 4" fill="none" stroke="black"/>
<path d="M509,289v 4" fill="none" stroke="black"/>
<path d="M511,289v 4" fill="none" stroke="black"/>
<path d="M512,289v 4" fill="none" stroke="black"/>
<path d="M513,285v 8" fill="none" stroke="black"/>
<path d="M521,289v 4" fill="none" stroke="black"/>
<path d="M525,289v 4" fill="none" stroke="black"/>
<path d="M529,289v 4" fill="none" stroke="black"/>
<path d="M531,289v 4" fill="none" stroke="black"/>
<path d="M533,289v 4" fill="none" stroke="black"/>
<path d="M535,289v 4" fill="none" stroke="black"/>
<path d="M536,289v 4" fill="none" stroke="black"/>
<path d="M537,289v 4" fill="none" stroke="black"/>
<path d="M539,285v 8" fill="none" stroke="black"/>
<text x="541" y="307" fill="black" font-size="11" font-family="Helvetica">
16
</text>
<text x="524" y="314" fill="black" font-size="16" font-family="Helvetica">
10
</text>
<path d="M85,34h 454" fill="none" stroke="black"/>
<path d="M85,43v -9" fill="none" stroke="black"/>
<path d="M93,38v -4" fill="none" stroke="black"/>
<path d="M97,38v -4" fill="none" stroke="black"/>
<path d="M100,38v -4" fill="none" stroke="black"/>
<path d="M103,38v -4" fill="none" stroke="black"/>
<path d="M105,38v -4" fill="none" stroke="black"/>
<path d="M106,38v -4" fill="none" stroke="black"/>
<path d="M108,38v -4" fill="none" stroke="black"/>
<path d="M109,38v -4" fill="none" stroke="black"/>
<path d="M110,43v -9" fill="none" stroke="black"/>
<path d="M118,38v -4" fill="none" stroke="black"/>
<path d="M122,38v -4" fill="none" stroke="black"/>
<path d="M125,38v -4" fill="none" stroke="black"/>
<path d="M128,38v -4" fill="none" stroke="black"/>
<path d="M130,38v -4" fill="none" stroke="black"/>
<path d="M132,38v -4" fill="none" stroke="black"/>
<path d="M133,38v -4" fill="none" stroke="black"/>
<path d="M134,38v -4" fill="none" stroke="black"/>
<path d="M135,43v -9" fill="none" stroke="black"/>
<path d="M143,38v -4" fill="none" stroke="black"/>
<path d="M147,38v -4" fill="none" stroke="black"/>
<path d="M151,38v -4" fill="none" stroke="black"/>
<path d="M153,38v -4" fill="none" stroke="black"/>
<path d="M155,38v -4" fill="none" stroke="black"/>
<path d="M157,38v -4" fill="none" stroke="black"/>
<path d="M158,38v -4" fill="none" stroke="black"/>
<path d="M159,38v -4" fill="none" stroke="black"/>
<path d="M161,43v -9" fill="none" stroke="black"/>
<path d="M168,38v -4" fill="none" stroke="black"/>
<path d="M173,38v -4" fill="none" stroke="black"/>
<path d="M176,38v -4" fill="none" stroke="black"/>
<path d="M178,38v -4" fill="none" stroke="black"/>
<path d="M180,38v -4" fill="none" stroke="black"/>
<path d="M182,38v -4" fill="none" stroke="black"/>
<path d="M183,38v -4" fill="none" stroke="black"/>
<path d="M185,38v -4" fill="none" stroke="black"/>
<path d="M186,43v -9" fill="none" stroke="black"/>
<path d="M193,38v -4" fill="none" stroke="black"/>
<path d="M198,38v -4" fill="none" stroke="black"/>
<path d="M201,38v -4" fill="none" stroke="black"/>
<path d="M203,38v -4" fill="none" stroke="black"/>
<path d="M205,38v -4" fill="none" stroke="black"/>
<path d="M207,38v -4" fill="none" stroke="black"/>
<path d="M209,38v -4" fill="none" stroke="black"/>
<path d="M210,38v -4" fill="none" stroke="black"/>
<path d="M211,43v -9" fill="none" stroke="black"/>
<path d="M219,38v -4" fill="none" stroke="black"/>
<path d="M223,38v -4" fill="none" stroke="black"/>
<path d="M226,38v -4" fill="none" stroke="black"/>
<path d="M229,38v -4" fill="none" stroke="black"/>
<path d="M231,38v -4" fill="none" stroke="black"/>
<path d="M232,38v -4" fill="none" stroke="black"/>
<path d="M234,38v -4" fill="none" stroke="black"/>
<path d="M235,38v -4" fill="none" stroke="black"/>
<path d="M236,43v -9" fill="none" stroke="black"/>
<path d="M244,38v -4" fill="none" stroke="black"/>
<path d="M248,38v -4" fill="none" stroke="black"/>
<path d="M251,38v -4" fill="none" stroke="black"/>
<path d="M254,38v -4" fill="none" stroke="black"/>
<path d="M256,38v -4" fill="none" stroke="black"/>
<path d="M258,38v -4" fill="none" stroke="black"/>
<path d="M259,38v -4" fill="none" stroke="black"/>
<path d="M260,38v -4" fill="none" stroke="black"/>
<path d="M261,43v -9" fill="none" stroke="black"/>
<path d="M269,38v -4" fill="none" stroke="black"/>
<path d="M273,38v -4" fill="none" stroke="black"/>
<path d="M277,38v -4" fill="none" stroke="black"/>
<path d="M279,38v -4" fill="none" stroke="black"/>
<path d="M281,38v -4" fill="none" stroke="black"/>
<path d="M283,38v -4" fill="none" stroke="black"/>
<path d="M284,38v -4" fill="none" stroke="black"/>
<path d="M285,38v -4" fill="none" stroke="black"/>
<path d="M287,43v -9" fill="none" stroke="black"/>
<path d="M294,38v -4" fill="none" stroke="black"/>
<path d="M299,38v -4" fill="none" stroke="black"/>
<path d="M302,38v -4" fill="none" stroke="black"/>
<path d="M304,38v -4" fill="none" stroke="black"/>
<path d="M306,38v -4" fill="none" stroke="black"/>
<path d="M308,38v -4" fill="none" stroke="black"/>
<path d="M309,38v -4" fill="none" stroke="black"/>
<path d="M311,38v -4" fill="none" stroke="black"/>
<path d="M312,43v -9" fill="none" stroke="black"/>
<path d="M319,38v -4" fill="none" stroke="black"/>
<path d="M324,38v -4" fill="none" stroke="black"/>
<path d="M327,38v -4" fill="none" stroke="black"/>
<path d="M329,38v -4" fill="none" stroke="black"/>
<path d="M331,38v -4" fill="none" stroke="black"/>
<path d="M333,38v -4" fill="none" stroke="black"/>
<path d="M335,38v -4" fill="none" stroke="black"/>
<path d="M336,38v -4" fill="none" stroke="black"/>
<path d="M337,43v -9" fill="none" stroke="black"/>
<path d="M345,38v -4" fill="none" stroke="black"/>
<path d="M349,38v -4" fill="none" stroke="black"/>
<path d="M352,38v -4" fill="none" stroke="black"/>
<path d="M355,38v -4" fill="none" stroke="black"/>
<path d="M357,38v -4" fill="none" stroke="black"/>
<path d="M358,38v -4" fill="none" stroke="black"/>
<path d="M360,38v -4" fill="none" stroke="black"/>
<path d="M361,38v -4" fill="none" stroke="black"/>
<path d="M362,43v -9" fill="none" stroke="black"/>
<path d="M370,38v -4" fill="none" stroke="black"/>
<path d="M374,38v -4" fill="none" stroke="black"/>
<path d="M377,38v -4" fill="none" stroke="black"/>
<path d="M380,38v -4" fill="none" stroke="black"/>
<path d="M382,38v -4" fill="none" stroke="black"/>
<path d="M383,38v -4" fill="none" stroke="black"/>
<path d="M385,38v -4" fill="none" stroke="black"/>
<path d="M386,38v -4" fill="none" stroke="black"/>
<path d="M387,43v -9" fill="none" stroke="black"/>
<path d="M395,38v -4" fill="none" stroke="black"/>
<path d="M399,38v -4" fill="none" stroke="black"/>
<path d="M403,38v -4" fill="none" stroke="black"/>
<path d="M405,38v -4" fill="none" stroke="black"/>
<path d="M407,38v -4" fill="none" stroke="black"/>
<path d="M409,38v -4" fill="none" stroke="black"/>
<path d="M410,38v -4" fill="none" stroke="black"/>
<path d="M411,38v -4" fill="none" stroke="black"/>
<path d="M413,43v -9" fill="none" stroke="black"/>
<path d="M420,38v -4" fill="none" stroke="black"/>
<path d="M425,38v -4" fill="none" stroke="black"/>
<path d="M428,38v -4" fill="none" stroke="black"/>
<path d="M430,38v -4" fill="none" stroke="black"/>
<path d="M432,38v -4" fill="none" stroke="black"/>
<path d="M434,38v -4" fill="none" stroke="black"/>
<path d="M435,38v -4" fill="none" stroke="black"/>
<path d="M437,38v -4" fill="none" stroke="black"/>
<path d="M438,43v -9" fill="none" stroke="black"/>
<path d="M445,38v -4" fill="none" stroke="black"/>
<path d="M450,38v -4" fill="none" stroke="black"/>
<path d="M453,38v -4" fill="none" stroke="black"/>
<path d="M455,38v -4" fill="none" stroke="black"/>
<path d="M457,38v -4" fill="none" stroke="black"/>
<path d="M459,38v -4" fill="none" stroke="black"/>
<path d="M461,38v -4" fill="none" stroke="black"/>
<path d="M462,38v -4" fill="none" stroke="black"/>
<path d="M463,43v -9" fill="none" stroke="black"/>
<path d="M471,38v -4" fill="none" stroke="black"/>
<path d="M475,38v -4" fill="none" stroke="black"/>
<path d="M478,38v -4" fill="none" stroke="black"/>
<path d="M481,38v -4" fill="none" stroke="black"/>
<path d="M483,38v -4" fill="none" stroke="black"/>
<path d="M484,38v -4" fill="none" stroke="black"/>
<path d="M486,38v -4" fill="none" stroke="black"/>
<path d="M487,38v -4" fill="none" stroke="black"/>
<path d="M488,43v -9" fill="none" stroke="black"/>
<path d="M496,38v -4" fill="none" stroke="black"/>
<path d="M500,38v -4" fill="none" stroke="black"/>
<path d="M503,38v -4" fill="none" stroke="black"/>
<path d="M506,38v -4" fill="none" stroke="black"/>
<path d="M508,38v -4" fill="none" stroke="black"/>
<path d="M509,38v -4" fill="none" stroke="black"/>
<path d="M511,38v -4" fill="none" stroke="black"/>
<path d="M512,38v -4" fill="none" stroke="black"/>
<path d="M513,43v -9" fill="none" stroke="black"/>
<path d="M521,38v -4" fill="none" stroke="black"/>
<path d="M525,38v -4" fill="none" stroke="black"/>
<path d="M529,38v -4" fill="none" stroke="black"/>
<path d="M531,38v -4" fill="none" stroke="black"/>
<path d="M533,38v -4" fill="none" stroke="black"/>
<path d="M535,38v -4" fill="none" stroke="black"/>
<path d="M536,38v -4" fill="none" stroke="black"/>
<path d="M537,38v -4" fill="none" stroke="black"/>
<path d="M539,43v -9" fill="none" stroke="black"/>
<path d="M85,293v -259" fill="none" stroke="black"/>
<g transform="rotate(-90,37,105)">
<text x="37" y="105" fill="black" font-size="11" font-family="Times">
&#0947;
</text>
</g>
<g transform="rotate(-90,29,113)">
<text x="29" y="113" fill="black" font-size="16" font-family="Times">
&#0946;
</text>
</g>
<g transform="rotate(-90,29,227)">
<text x="29" y="227" fill="black" font-size="16" font-family="Helvetica">
photon coupling 
</text>
</g>
<path d="M98,293h -13" fill="none" stroke="black"/>
<text x="66" y="293" fill="black" font-size="11" font-family="Helvetica">
-11
</text>
<text x="49" y="300" fill="black" font-size="16" font-family="Helvetica">
10
</text>
<path d="M91,267h -6" fill="none" stroke="black"/>
<path d="M91,252h -6" fill="none" stroke="black"/>
<path d="M91,241h -6" fill="none" stroke="black"/>
<path d="M91,233h -6" fill="none" stroke="black"/>
<path d="M91,226h -6" fill="none" stroke="black"/>
<path d="M91,220h -6" fill="none" stroke="black"/>
<path d="M91,215h -6" fill="none" stroke="black"/>
<path d="M91,211h -6" fill="none" stroke="black"/>
<path d="M98,207h -13" fill="none" stroke="black"/>
<text x="65" y="207" fill="black" font-size="11" font-family="Helvetica">
-10
</text>
<text x="48" y="214" fill="black" font-size="16" font-family="Helvetica">
10
</text>
<path d="M91,181h -6" fill="none" stroke="black"/>
<path d="M91,166h -6" fill="none" stroke="black"/>
<path d="M91,155h -6" fill="none" stroke="black"/>
<path d="M91,147h -6" fill="none" stroke="black"/>
<path d="M91,140h -6" fill="none" stroke="black"/>
<path d="M91,134h -6" fill="none" stroke="black"/>
<path d="M91,129h -6" fill="none" stroke="black"/>
<path d="M91,125h -6" fill="none" stroke="black"/>
<path d="M98,121h -13" fill="none" stroke="black"/>
<text x="71" y="121" fill="black" font-size="11" font-family="Helvetica">
-9
</text>
<text x="54" y="128" fill="black" font-size="16" font-family="Helvetica">
10
</text>
<path d="M91,95h -6" fill="none" stroke="black"/>
<path d="M91,79h -6" fill="none" stroke="black"/>
<path d="M91,69h -6" fill="none" stroke="black"/>
<path d="M91,60h -6" fill="none" stroke="black"/>
<path d="M91,53h -6" fill="none" stroke="black"/>
<path d="M91,48h -6" fill="none" stroke="black"/>
<path d="M91,43h -6" fill="none" stroke="black"/>
<path d="M91,38h -6" fill="none" stroke="black"/>
<path d="M98,34h -13" fill="none" stroke="black"/>
<text x="71" y="34" fill="black" font-size="11" font-family="Helvetica">
-8
</text>
<text x="54" y="41" fill="black" font-size="16" font-family="Helvetica">
10
</text>
<path d="M539,293v -259" fill="none" stroke="black"/>
<path d="M526,293h 13" fill="none" stroke="black"/>
<path d="M532,267h 7" fill="none" stroke="black"/>
<path d="M532,252h 7" fill="none" stroke="black"/>
<path d="M532,241h 7" fill="none" stroke="black"/>
<path d="M532,233h 7" fill="none" stroke="black"/>
<path d="M532,226h 7" fill="none" stroke="black"/>
<path d="M532,220h 7" fill="none" stroke="black"/>
<path d="M532,215h 7" fill="none" stroke="black"/>
<path d="M532,211h 7" fill="none" stroke="black"/>
<path d="M526,207h 13" fill="none" stroke="black"/>
<path d="M532,181h 7" fill="none" stroke="black"/>
<path d="M532,166h 7" fill="none" stroke="black"/>
<path d="M532,155h 7" fill="none" stroke="black"/>
<path d="M532,147h 7" fill="none" stroke="black"/>
<path d="M532,140h 7" fill="none" stroke="black"/>
<path d="M532,134h 7" fill="none" stroke="black"/>
<path d="M532,129h 7" fill="none" stroke="black"/>
<path d="M532,125h 7" fill="none" stroke="black"/>
<path d="M526,121h 13" fill="none" stroke="black"/>
<path d="M532,95h 7" fill="none" stroke="black"/>
<path d="M532,79h 7" fill="none" stroke="black"/>
<path d="M532,69h 7" fill="none" stroke="black"/>
<path d="M532,60h 7" fill="none" stroke="black"/>
<path d="M532,53h 7" fill="none" stroke="black"/>
<path d="M532,48h 7" fill="none" stroke="black"/>
<path d="M532,43h 7" fill="none" stroke="black"/>
<path d="M532,38h 7" fill="none" stroke="black"/>
<path d="M526,34h 13" fill="none" stroke="black"/>
<path d="M304,0h 235v 34h -235z" fill="#ccccff"/>
<path d="M85,0h 80v 34h -80z" fill="#ccffcc"/>
<path d="M135,0h 152v 34h -152z" fill="#0000ff"/>
<path d="M265,0v 34" fill="none" stroke="#ff0000" stroke-width="4"/>
<path d="M265,95h 11" fill="none" stroke="#ff0000" stroke-width="2"/>
<path d="M276,93l 2, 2l -2, 1z" fill="#ff0000"/>
<path d="M276,93l 2, 2l -2, 1v -3z" fill="none" stroke="#ff0000" stroke-width="2"/>
<path d="M491,0v 34" fill="none" stroke="#669999" stroke-width="4"/>
<path d="M491,95h -10" fill="none" stroke="#669999" stroke-width="2"/>
<path d="M481,96l -2, -1l 2, -2z" fill="#669999"/>
<path d="M481,96l -2, -1l 2, -2v 3z" fill="none" stroke="#669999" stroke-width="2"/>
<text x="179" y="-778" fill="white" font-size="16" font-family="Helvetica">
CAST
</text>
<g transform="rotate(-90,114,-597)">
<text x="114" y="-597" fill="black" font-size="16" font-family="Helvetica">
torsion pendulum
</text>
</g>
<text x="367" y="-650" fill="black" font-size="16" font-family="Helvetica">
neutrons
</text>
<text x="311" y="48" fill="black" font-size="16" font-family="Helvetica">
(GammeV-CHASE)
</text>
<text x="311" y="29" fill="black" font-size="16" font-family="Helvetica">
afterglow
</text>
<g transform="rotate(-90,276,-616)">
<text x="276" y="-616" fill="#ff0000" font-size="10" font-family="Helvetica">
atom interferometry
</text>
</g>
<text x="142" y="-1444" fill="#669999" font-size="10" font-family="Helvetica">
astronomical polarization
</text>
<text x="179" y="-1595" fill="black" font-size="10" font-family="Helvetica">
Solar limit
</text>
<g transform="rotate(-45,312,-640)">
<text x="312" y="-640" text-anchor="middle" fill="#666666" font-size="32" font-family="Helvetica">
preliminary
</text>
</g>
<path d="M85,293h 454" fill="none" stroke="black"/>
<path d="M85,285v 8" fill="none" stroke="black"/>
<path d="M93,289v 4" fill="none" stroke="black"/>
<path d="M97,289v 4" fill="none" stroke="black"/>
<path d="M100,289v 4" fill="none" stroke="black"/>
<path d="M103,289v 4" fill="none" stroke="black"/>
<path d="M105,289v 4" fill="none" stroke="black"/>
<path d="M106,289v 4" fill="none" stroke="black"/>
<path d="M108,289v 4" fill="none" stroke="black"/>
<path d="M109,289v 4" fill="none" stroke="black"/>
<path d="M110,285v 8" fill="none" stroke="black"/>
<path d="M118,289v 4" fill="none" stroke="black"/>
<path d="M122,289v 4" fill="none" stroke="black"/>
<path d="M125,289v 4" fill="none" stroke="black"/>
<path d="M128,289v 4" fill="none" stroke="black"/>
<path d="M130,289v 4" fill="none" stroke="black"/>
<path d="M132,289v 4" fill="none" stroke="black"/>
<path d="M133,289v 4" fill="none" stroke="black"/>
<path d="M134,289v 4" fill="none" stroke="black"/>
<path d="M135,285v 8" fill="none" stroke="black"/>
<path d="M143,289v 4" fill="none" stroke="black"/>
<path d="M147,289v 4" fill="none" stroke="black"/>
<path d="M151,289v 4" fill="none" stroke="black"/>
<path d="M153,289v 4" fill="none" stroke="black"/>
<path d="M155,289v 4" fill="none" stroke="black"/>
<path d="M157,289v 4" fill="none" stroke="black"/>
<path d="M158,289v 4" fill="none" stroke="black"/>
<path d="M159,289v 4" fill="none" stroke="black"/>
<path d="M161,285v 8" fill="none" stroke="black"/>
<path d="M168,289v 4" fill="none" stroke="black"/>
<path d="M173,289v 4" fill="none" stroke="black"/>
<path d="M176,289v 4" fill="none" stroke="black"/>
<path d="M178,289v 4" fill="none" stroke="black"/>
<path d="M180,289v 4" fill="none" stroke="black"/>
<path d="M182,289v 4" fill="none" stroke="black"/>
<path d="M183,289v 4" fill="none" stroke="black"/>
<path d="M185,289v 4" fill="none" stroke="black"/>
<path d="M186,285v 8" fill="none" stroke="black"/>
<path d="M193,289v 4" fill="none" stroke="black"/>
<path d="M198,289v 4" fill="none" stroke="black"/>
<path d="M201,289v 4" fill="none" stroke="black"/>
<path d="M203,289v 4" fill="none" stroke="black"/>
<path d="M205,289v 4" fill="none" stroke="black"/>
<path d="M207,289v 4" fill="none" stroke="black"/>
<path d="M209,289v 4" fill="none" stroke="black"/>
<path d="M210,289v 4" fill="none" stroke="black"/>
<path d="M211,285v 8" fill="none" stroke="black"/>
<path d="M219,289v 4" fill="none" stroke="black"/>
<path d="M223,289v 4" fill="none" stroke="black"/>
<path d="M226,289v 4" fill="none" stroke="black"/>
<path d="M229,289v 4" fill="none" stroke="black"/>
<path d="M231,289v 4" fill="none" stroke="black"/>
<path d="M232,289v 4" fill="none" stroke="black"/>
<path d="M234,289v 4" fill="none" stroke="black"/>
<path d="M235,289v 4" fill="none" stroke="black"/>
<path d="M236,285v 8" fill="none" stroke="black"/>
<path d="M244,289v 4" fill="none" stroke="black"/>
<path d="M248,289v 4" fill="none" stroke="black"/>
<path d="M251,289v 4" fill="none" stroke="black"/>
<path d="M254,289v 4" fill="none" stroke="black"/>
<path d="M256,289v 4" fill="none" stroke="black"/>
<path d="M258,289v 4" fill="none" stroke="black"/>
<path d="M259,289v 4" fill="none" stroke="black"/>
<path d="M260,289v 4" fill="none" stroke="black"/>
<path d="M261,285v 8" fill="none" stroke="black"/>
<path d="M269,289v 4" fill="none" stroke="black"/>
<path d="M273,289v 4" fill="none" stroke="black"/>
<path d="M277,289v 4" fill="none" stroke="black"/>
<path d="M279,289v 4" fill="none" stroke="black"/>
<path d="M281,289v 4" fill="none" stroke="black"/>
<path d="M283,289v 4" fill="none" stroke="black"/>
<path d="M284,289v 4" fill="none" stroke="black"/>
<path d="M285,289v 4" fill="none" stroke="black"/>
<path d="M287,285v 8" fill="none" stroke="black"/>
<path d="M294,289v 4" fill="none" stroke="black"/>
<path d="M299,289v 4" fill="none" stroke="black"/>
<path d="M302,289v 4" fill="none" stroke="black"/>
<path d="M304,289v 4" fill="none" stroke="black"/>
<path d="M306,289v 4" fill="none" stroke="black"/>
<path d="M308,289v 4" fill="none" stroke="black"/>
<path d="M309,289v 4" fill="none" stroke="black"/>
<path d="M311,289v 4" fill="none" stroke="black"/>
<path d="M312,285v 8" fill="none" stroke="black"/>
<path d="M319,289v 4" fill="none" stroke="black"/>
<path d="M324,289v 4" fill="none" stroke="black"/>
<path d="M327,289v 4" fill="none" stroke="black"/>
<path d="M329,289v 4" fill="none" stroke="black"/>
<path d="M331,289v 4" fill="none" stroke="black"/>
<path d="M333,289v 4" fill="none" stroke="black"/>
<path d="M335,289v 4" fill="none" stroke="black"/>
<path d="M336,289v 4" fill="none" stroke="black"/>
<path d="M337,285v 8" fill="none" stroke="black"/>
<path d="M345,289v 4" fill="none" stroke="black"/>
<path d="M349,289v 4" fill="none" stroke="black"/>
<path d="M352,289v 4" fill="none" stroke="black"/>
<path d="M355,289v 4" fill="none" stroke="black"/>
<path d="M357,289v 4" fill="none" stroke="black"/>
<path d="M358,289v 4" fill="none" stroke="black"/>
<path d="M360,289v 4" fill="none" stroke="black"/>
<path d="M361,289v 4" fill="none" stroke="black"/>
<path d="M362,285v 8" fill="none" stroke="black"/>
<path d="M370,289v 4" fill="none" stroke="black"/>
<path d="M374,289v 4" fill="none" stroke="black"/>
<path d="M377,289v 4" fill="none" stroke="black"/>
<path d="M380,289v 4" fill="none" stroke="black"/>
<path d="M382,289v 4" fill="none" stroke="black"/>
<path d="M383,289v 4" fill="none" stroke="black"/>
<path d="M385,289v 4" fill="none" stroke="black"/>
<path d="M386,289v 4" fill="none" stroke="black"/>
<path d="M387,285v 8" fill="none" stroke="black"/>
<path d="M395,289v 4" fill="none" stroke="black"/>
<path d="M399,289v 4" fill="none" stroke="black"/>
<path d="M403,289v 4" fill="none" stroke="black"/>
<path d="M405,289v 4" fill="none" stroke="black"/>
<path d="M407,289v 4" fill="none" stroke="black"/>
<path d="M409,289v 4" fill="none" stroke="black"/>
<path d="M410,289v 4" fill="none" stroke="black"/>
<path d="M411,289v 4" fill="none" stroke="black"/>
<path d="M413,285v 8" fill="none" stroke="black"/>
<path d="M420,289v 4" fill="none" stroke="black"/>
<path d="M425,289v 4" fill="none" stroke="black"/>
<path d="M428,289v 4" fill="none" stroke="black"/>
<path d="M430,289v 4" fill="none" stroke="black"/>
<path d="M432,289v 4" fill="none" stroke="black"/>
<path d="M434,289v 4" fill="none" stroke="black"/>
<path d="M435,289v 4" fill="none" stroke="black"/>
<path d="M437,289v 4" fill="none" stroke="black"/>
<path d="M438,285v 8" fill="none" stroke="black"/>
<path d="M445,289v 4" fill="none" stroke="black"/>
<path d="M450,289v 4" fill="none" stroke="black"/>
<path d="M453,289v 4" fill="none" stroke="black"/>
<path d="M455,289v 4" fill="none" stroke="black"/>
<path d="M457,289v 4" fill="none" stroke="black"/>
<path d="M459,289v 4" fill="none" stroke="black"/>
<path d="M461,289v 4" fill="none" stroke="black"/>
<path d="M462,289v 4" fill="none" stroke="black"/>
<path d="M463,285v 8" fill="none" stroke="black"/>
<path d="M471,289v 4" fill="none" stroke="black"/>
<path d="M475,289v 4" fill="none" stroke="black"/>
<path d="M478,289v 4" fill="none" stroke="black"/>
<path d="M481,289v 4" fill="none" stroke="black"/>
<path d="M483,289v 4" fill="none" stroke="black"/>
<path d="M484,289v 4" fill="none" stroke="black"/>
<path d="M486,289v 4" fill="none" stroke="black"/>
<path d="M487,289v 4" fill="none" stroke="black"/>
<path d="M488,285v 8" fill="none" stroke="black"/>
<path d="M496,289v 4" fill="none" stroke="black"/>
<path d="M500,289v 4" fill="none" stroke="black"/>
<path d="M503,289v 4" fill="none" stroke="black"/>
<path d="M506,289v 4" fill="none" stroke="black"/>
<path d="M508,289v 4" fill="none" stroke="black"/>
<path d="M509,289v 4" fill="none" stroke="black"/>
<path d="M511,289v 4" fill="none" stroke="black"/>
<path d="M512,289v 4" fill="none" stroke="black"/>
<path d="M513,285v 8" fill="none" stroke="black"/>
<path d="M521,289v 4" fill="none" stroke="black"/>
<path d="M525,289v 4" fill="none" stroke="black"/>
<path d="M529,289v 4" fill="none" stroke="black"/>
<path d="M531,289v 4" fill="none" stroke="black"/>
<path d="M533,289v 4" fill="none" stroke="black"/>
<path d="M535,289v 4" fill="none" stroke="black"/>
<path d="M536,289v 4" fill="none" stroke="black"/>
<path d="M537,289v 4" fill="none" stroke="black"/>
<path d="M539,285v 8" fill="none" stroke="black"/>
<path d="M85,34h 454" fill="none" stroke="black"/>
<path d="M85,43v -9" fill="none" stroke="black"/>
<path d="M93,38v -4" fill="none" stroke="black"/>
<path d="M97,38v -4" fill="none" stroke="black"/>
<path d="M100,38v -4" fill="none" stroke="black"/>
<path d="M103,38v -4" fill="none" stroke="black"/>
<path d="M105,38v -4" fill="none" stroke="black"/>
<path d="M106,38v -4" fill="none" stroke="black"/>
<path d="M108,38v -4" fill="none" stroke="black"/>
<path d="M109,38v -4" fill="none" stroke="black"/>
<path d="M110,43v -9" fill="none" stroke="black"/>
<path d="M118,38v -4" fill="none" stroke="black"/>
<path d="M122,38v -4" fill="none" stroke="black"/>
<path d="M125,38v -4" fill="none" stroke="black"/>
<path d="M128,38v -4" fill="none" stroke="black"/>
<path d="M130,38v -4" fill="none" stroke="black"/>
<path d="M132,38v -4" fill="none" stroke="black"/>
<path d="M133,38v -4" fill="none" stroke="black"/>
<path d="M134,38v -4" fill="none" stroke="black"/>
<path d="M135,43v -9" fill="none" stroke="black"/>
<path d="M143,38v -4" fill="none" stroke="black"/>
<path d="M147,38v -4" fill="none" stroke="black"/>
<path d="M151,38v -4" fill="none" stroke="black"/>
<path d="M153,38v -4" fill="none" stroke="black"/>
<path d="M155,38v -4" fill="none" stroke="black"/>
<path d="M157,38v -4" fill="none" stroke="black"/>
<path d="M158,38v -4" fill="none" stroke="black"/>
<path d="M159,38v -4" fill="none" stroke="black"/>
<path d="M161,43v -9" fill="none" stroke="black"/>
<path d="M168,38v -4" fill="none" stroke="black"/>
<path d="M173,38v -4" fill="none" stroke="black"/>
<path d="M176,38v -4" fill="none" stroke="black"/>
<path d="M178,38v -4" fill="none" stroke="black"/>
<path d="M180,38v -4" fill="none" stroke="black"/>
<path d="M182,38v -4" fill="none" stroke="black"/>
<path d="M183,38v -4" fill="none" stroke="black"/>
<path d="M185,38v -4" fill="none" stroke="black"/>
<path d="M186,43v -9" fill="none" stroke="black"/>
<path d="M193,38v -4" fill="none" stroke="black"/>
<path d="M198,38v -4" fill="none" stroke="black"/>
<path d="M201,38v -4" fill="none" stroke="black"/>
<path d="M203,38v -4" fill="none" stroke="black"/>
<path d="M205,38v -4" fill="none" stroke="black"/>
<path d="M207,38v -4" fill="none" stroke="black"/>
<path d="M209,38v -4" fill="none" stroke="black"/>
<path d="M210,38v -4" fill="none" stroke="black"/>
<path d="M211,43v -9" fill="none" stroke="black"/>
<path d="M219,38v -4" fill="none" stroke="black"/>
<path d="M223,38v -4" fill="none" stroke="black"/>
<path d="M226,38v -4" fill="none" stroke="black"/>
<path d="M229,38v -4" fill="none" stroke="black"/>
<path d="M231,38v -4" fill="none" stroke="black"/>
<path d="M232,38v -4" fill="none" stroke="black"/>
<path d="M234,38v -4" fill="none" stroke="black"/>
<path d="M235,38v -4" fill="none" stroke="black"/>
<path d="M236,43v -9" fill="none" stroke="black"/>
<path d="M244,38v -4" fill="none" stroke="black"/>
<path d="M248,38v -4" fill="none" stroke="black"/>
<path d="M251,38v -4" fill="none" stroke="black"/>
<path d="M254,38v -4" fill="none" stroke="black"/>
<path d="M256,38v -4" fill="none" stroke="black"/>
<path d="M258,38v -4" fill="none" stroke="black"/>
<path d="M259,38v -4" fill="none" stroke="black"/>
<path d="M260,38v -4" fill="none" stroke="black"/>
<path d="M261,43v -9" fill="none" stroke="black"/>
<path d="M269,38v -4" fill="none" stroke="black"/>
<path d="M273,38v -4" fill="none" stroke="black"/>
<path d="M277,38v -4" fill="none" stroke="black"/>
<path d="M279,38v -4" fill="none" stroke="black"/>
<path d="M281,38v -4" fill="none" stroke="black"/>
<path d="M283,38v -4" fill="none" stroke="black"/>
<path d="M284,38v -4" fill="none" stroke="black"/>
<path d="M285,38v -4" fill="none" stroke="black"/>
<path d="M287,43v -9" fill="none" stroke="black"/>
<path d="M294,38v -4" fill="none" stroke="black"/>
<path d="M299,38v -4" fill="none" stroke="black"/>
<path d="M302,38v -4" fill="none" stroke="black"/>
<path d="M304,38v -4" fill="none" stroke="black"/>
<path d="M306,38v -4" fill="none" stroke="black"/>
<path d="M308,38v -4" fill="none" stroke="black"/>
<path d="M309,38v -4" fill="none" stroke="black"/>
<path d="M311,38v -4" fill="none" stroke="black"/>
<path d="M312,43v -9" fill="none" stroke="black"/>
<path d="M319,38v -4" fill="none" stroke="black"/>
<path d="M324,38v -4" fill="none" stroke="black"/>
<path d="M327,38v -4" fill="none" stroke="black"/>
<path d="M329,38v -4" fill="none" stroke="black"/>
<path d="M331,38v -4" fill="none" stroke="black"/>
<path d="M333,38v -4" fill="none" stroke="black"/>
<path d="M335,38v -4" fill="none" stroke="black"/>
<path d="M336,38v -4" fill="none" stroke="black"/>
<path d="M337,43v -9" fill="none" stroke="black"/>
<path d="M345,38v -4" fill="none" stroke="black"/>
<path d="M349,38v -4" fill="none" stroke="black"/>
<path d="M352,38v -4" fill="none" stroke="black"/>
<path d="M355,38v -4" fill="none" stroke="black"/>
<path d="M357,38v -4" fill="none" stroke="black"/>
<path d="M358,38v -4" fill="none" stroke="black"/>
<path d="M360,38v -4" fill="none" stroke="black"/>
<path d="M361,38v -4" fill="none" stroke="black"/>
<path d="M362,43v -9" fill="none" stroke="black"/>
<path d="M370,38v -4" fill="none" stroke="black"/>
<path d="M374,38v -4" fill="none" stroke="black"/>
<path d="M377,38v -4" fill="none" stroke="black"/>
<path d="M380,38v -4" fill="none" stroke="black"/>
<path d="M382,38v -4" fill="none" stroke="black"/>
<path d="M383,38v -4" fill="none" stroke="black"/>
<path d="M385,38v -4" fill="none" stroke="black"/>
<path d="M386,38v -4" fill="none" stroke="black"/>
<path d="M387,43v -9" fill="none" stroke="black"/>
<path d="M395,38v -4" fill="none" stroke="black"/>
<path d="M399,38v -4" fill="none" stroke="black"/>
<path d="M403,38v -4" fill="none" stroke="black"/>
<path d="M405,38v -4" fill="none" stroke="black"/>
<path d="M407,38v -4" fill="none" stroke="black"/>
<path d="M409,38v -4" fill="none" stroke="black"/>
<path d="M410,38v -4" fill="none" stroke="black"/>
<path d="M411,38v -4" fill="none" stroke="black"/>
<path d="M413,43v -9" fill="none" stroke="black"/>
<path d="M420,38v -4" fill="none" stroke="black"/>
<path d="M425,38v -4" fill="none" stroke="black"/>
<path d="M428,38v -4" fill="none" stroke="black"/>
<path d="M430,38v -4" fill="none" stroke="black"/>
<path d="M432,38v -4" fill="none" stroke="black"/>
<path d="M434,38v -4" fill="none" stroke="black"/>
<path d="M435,38v -4" fill="none" stroke="black"/>
<path d="M437,38v -4" fill="none" stroke="black"/>
<path d="M438,43v -9" fill="none" stroke="black"/>
<path d="M445,38v -4" fill="none" stroke="black"/>
<path d="M450,38v -4" fill="none" stroke="black"/>
<path d="M453,38v -4" fill="none" stroke="black"/>
<path d="M455,38v -4" fill="none" stroke="black"/>
<path d="M457,38v -4" fill="none" stroke="black"/>
<path d="M459,38v -4" fill="none" stroke="black"/>
<path d="M461,38v -4" fill="none" stroke="black"/>
<path d="M462,38v -4" fill="none" stroke="black"/>
<path d="M463,43v -9" fill="none" stroke="black"/>
<path d="M471,38v -4" fill="none" stroke="black"/>
<path d="M475,38v -4" fill="none" stroke="black"/>
<path d="M478,38v -4" fill="none" stroke="black"/>
<path d="M481,38v -4" fill="none" stroke="black"/>
<path d="M483,38v -4" fill="none" stroke="black"/>
<path d="M484,38v -4" fill="none" stroke="black"/>
<path d="M486,38v -4" fill="none" stroke="black"/>
<path d="M487,38v -4" fill="none" stroke="black"/>
<path d="M488,43v -9" fill="none" stroke="black"/>
<path d="M496,38v -4" fill="none" stroke="black"/>
<path d="M500,38v -4" fill="none" stroke="black"/>
<path d="M503,38v -4" fill="none" stroke="black"/>
<path d="M506,38v -4" fill="none" stroke="black"/>
<path d="M508,38v -4" fill="none" stroke="black"/>
<path d="M509,38v -4" fill="none" stroke="black"/>
<path d="M511,38v -4" fill="none" stroke="black"/>
<path d="M512,38v -4" fill="none" stroke="black"/>
<path d="M513,43v -9" fill="none" stroke="black"/>
<path d="M521,38v -4" fill="none" stroke="black"/>
<path d="M525,38v -4" fill="none" stroke="black"/>
<path d="M529,38v -4" fill="none" stroke="black"/>
<path d="M531,38v -4" fill="none" stroke="black"/>
<path d="M533,38v -4" fill="none" stroke="black"/>
<path d="M535,38v -4" fill="none" stroke="black"/>
<path d="M536,38v -4" fill="none" stroke="black"/>
<path d="M537,38v -4" fill="none" stroke="black"/>
<path d="M539,43v -9" fill="none" stroke="black"/>
<path d="M85,293v -259" fill="none" stroke="black"/>
<path d="M98,293h -13" fill="none" stroke="black"/>
<path d="M91,267h -6" fill="none" stroke="black"/>
<path d="M91,252h -6" fill="none" stroke="black"/>
<path d="M91,241h -6" fill="none" stroke="black"/>
<path d="M91,233h -6" fill="none" stroke="black"/>
<path d="M91,226h -6" fill="none" stroke="black"/>
<path d="M91,220h -6" fill="none" stroke="black"/>
<path d="M91,215h -6" fill="none" stroke="black"/>
<path d="M91,211h -6" fill="none" stroke="black"/>
<path d="M98,207h -13" fill="none" stroke="black"/>
<path d="M91,181h -6" fill="none" stroke="black"/>
<path d="M91,166h -6" fill="none" stroke="black"/>
<path d="M91,155h -6" fill="none" stroke="black"/>
<path d="M91,147h -6" fill="none" stroke="black"/>
<path d="M91,140h -6" fill="none" stroke="black"/>
<path d="M91,134h -6" fill="none" stroke="black"/>
<path d="M91,129h -6" fill="none" stroke="black"/>
<path d="M91,125h -6" fill="none" stroke="black"/>
<path d="M98,121h -13" fill="none" stroke="black"/>
<path d="M91,95h -6" fill="none" stroke="black"/>
<path d="M91,79h -6" fill="none" stroke="black"/>
<path d="M91,69h -6" fill="none" stroke="black"/>
<path d="M91,60h -6" fill="none" stroke="black"/>
<path d="M91,53h -6" fill="none" stroke="black"/>
<path d="M91,48h -6" fill="none" stroke="black"/>
<path d="M91,43h -6" fill="none" stroke="black"/>
<path d="M91,38h -6" fill="none" stroke="black"/>
<path d="M98,34h -13" fill="none" stroke="black"/>
<path d="M539,293v -259" fill="none" stroke="black"/>
<path d="M526,293h 13" fill="none" stroke="black"/>
<path d="M532,267h 7" fill="none" stroke="black"/>
<path d="M532,252h 7" fill="none" stroke="black"/>
<path d="M532,241h 7" fill="none" stroke="black"/>
<path d="M532,233h 7" fill="none" stroke="black"/>
<path d="M532,226h 7" fill="none" stroke="black"/>
<path d="M532,220h 7" fill="none" stroke="black"/>
<path d="M532,215h 7" fill="none" stroke="black"/>
<path d="M532,211h 7" fill="none" stroke="black"/>
<path d="M526,207h 13" fill="none" stroke="black"/>
<path d="M532,181h 7" fill="none" stroke="black"/>
<path d="M532,166h 7" fill="none" stroke="black"/>
<path d="M532,155h 7" fill="none" stroke="black"/>
<path d="M532,147h 7" fill="none" stroke="black"/>
<path d="M532,140h 7" fill="none" stroke="black"/>
<path d="M532,134h 7" fill="none" stroke="black"/>
<path d="M532,129h 7" fill="none" stroke="black"/>
<path d="M532,125h 7" fill="none" stroke="black"/>
<path d="M526,121h 13" fill="none" stroke="black"/>
<path d="M532,95h 7" fill="none" stroke="black"/>
<path d="M532,79h 7" fill="none" stroke="black"/>
<path d="M532,69h 7" fill="none" stroke="black"/>
<path d="M532,60h 7" fill="none" stroke="black"/>
<path d="M532,53h 7" fill="none" stroke="black"/>
<path d="M532,48h 7" fill="none" stroke="black"/>
<path d="M532,43h 7" fill="none" stroke="black"/>
<path d="M532,38h 7" fill="none" stroke="black"/>
<path d="M526,34h 13" fill="none" stroke="black"/></svg>
